<?xml version="1.0" encoding="UTF-8" standalone="no"?>
<svg width="288px" height="37px" viewBox="0 0 288 37" version="1.1" xmlns="http://www.w3.org/2000/svg" xmlns:xlink="http://www.w3.org/1999/xlink" xmlns:sketch="http://www.bohemiancoding.com/sketch/ns">
    <!-- Generator: Sketch 3.0.4 (8054) - http://www.bohemiancoding.com/sketch -->
    <title>Group</title>
    <desc>Created with Sketch.</desc>
    <defs></defs>
    <g id="Page-1" stroke="none" stroke-width="1" fill="none" fill-rule="evenodd" sketch:type="MSPage">
        <g id="Group" sketch:type="MSLayerGroup">
            <path d="M39.2097,30.641 L42.9208,23.7738 C43.9166,24.4426 45.2742,25.1114 46.8131,25.1114 C48.8041,25.1114 50.1623,23.8633 50.1623,21.7674 L50.1623,2.7721 L59.304,2.7721 L59.304,21.9011 C59.304,29.5261 54.6425,33.0487 47.6277,33.0487 C44.6858,33.0487 41.5631,32.4246 39.2097,30.641 L39.2097,30.641 Z" id="Shape" fill="#EE4037" sketch:type="MSShapeGroup"></path>
            <path d="M60.7964,32.5136 L60.7964,2.7721 L83.6968,2.7721 L83.6968,10.6199 L69.9386,10.6199 L69.9386,13.5626 L83.3803,13.5626 L83.3803,21.4108 L69.9386,21.4108 L69.9386,24.6659 L83.6968,24.6659 L83.6968,32.5136 L60.7964,32.5136 L60.7964,32.5136 Z" id="Shape" fill="#EE4037" sketch:type="MSShapeGroup"></path>
            <path d="M104.0032,32.5136 L102.9171,29.0358 L92.0553,29.0358 L90.9692,32.5136 L80.6051,32.5136 L91.7384,2.7721 L103.234,2.7721 L114.3673,32.5136 L104.0032,32.5136 L104.0032,32.5136 Z M97.4865,11.6009 L94.4991,21.1876 L100.4733,21.1876 L97.4865,11.6009 L97.4865,11.6009 Z" id="Shape" fill="#EE4037" sketch:type="MSShapeGroup"></path>
            <path d="M132.8763,32.5136 L121.743,17.4422 L121.743,32.5136 L112.6008,32.5136 L112.6008,2.7721 L122.0145,2.7721 L132.5144,16.8624 L132.5144,2.7721 L141.6566,2.7721 L141.6566,32.5136 L132.8763,32.5136 L132.8763,32.5136 Z" id="Shape" fill="#EE4037" sketch:type="MSShapeGroup"></path>
            <path d="M151.0243,17.9082 C151.0243,8.7228 158.175,2.5245 167.6341,2.5245 C175.5539,2.5245 179.5365,7.0729 181.3469,11.1753 L173.472,14.7869 C172.7029,12.4682 170.3494,10.4618 167.6341,10.4618 C163.2442,10.4618 160.3023,13.7616 160.3023,17.9082 C160.3023,22.0553 163.2442,25.3546 167.6341,25.3546 C170.3494,25.3546 172.7029,23.3482 173.472,21.0295 L181.3469,24.5968 C179.5819,28.5654 175.5539,33.2919 167.6341,33.2919 C158.175,33.2919 151.0243,27.0493 151.0243,17.9082 L151.0243,17.9082 Z" id="Shape" fill="#EE4037" sketch:type="MSShapeGroup"></path>
            <path d="M200.4898,32.7568 L199.4037,29.279 L188.542,29.279 L187.4558,32.7568 L177.0917,32.7568 L188.225,3.0153 L199.7206,3.0153 L210.8539,32.7568 L200.4898,32.7568 L200.4898,32.7568 Z M193.9731,11.8441 L190.9857,21.4308 L196.9599,21.4308 L193.9731,11.8441 L193.9731,11.8441 Z" id="Shape" fill="#EE4037" sketch:type="MSShapeGroup"></path>
            <path d="M225.6972,32.7568 L221.5334,23.3929 L218.2296,23.3929 L218.2296,32.7568 L209.0874,32.7568 L209.0874,3.0153 L225.1991,3.0153 C232.2594,3.0153 236.0613,7.6527 236.0613,13.2265 C236.0613,18.3542 233.029,21.0742 230.6302,22.2333 L236.1062,32.7568 L225.6972,32.7568 L225.6972,32.7568 Z M226.7833,13.1818 C226.7833,11.5766 225.3348,10.863 223.7965,10.863 L218.2296,10.863 L218.2296,15.5452 L223.7965,15.5452 C225.3348,15.5452 226.7833,14.8317 226.7833,13.1818 L226.7833,13.1818 Z" id="Shape" fill="#EE4037" sketch:type="MSShapeGroup"></path>
            <path d="M236.6323,32.7568 L236.6323,3.0153 L245.7745,3.0153 L245.7745,24.9091 L257.2247,24.9091 L257.2247,32.7568 L236.6323,32.7568 L236.6323,32.7568 Z" id="Shape" fill="#EE4037" sketch:type="MSShapeGroup"></path>
            <path d="M254.9616,17.9082 C254.9616,8.7676 262.1577,2.5245 271.4806,2.5245 C280.804,2.5245 288,8.7676 288,17.9082 C288,27.0493 280.804,33.2919 271.4806,33.2919 C262.1577,33.2919 254.9616,27.0493 254.9616,17.9082 L254.9616,17.9082 Z M278.722,17.9082 C278.722,13.7616 275.8705,10.4618 271.4806,10.4618 C267.0906,10.4618 264.2396,13.7616 264.2396,17.9082 C264.2396,22.0553 267.0906,25.3546 271.4806,25.3546 C275.8705,25.3546 278.722,22.0553 278.722,17.9082 L278.722,17.9082 Z" id="Shape" fill="#EE4037" sketch:type="MSShapeGroup"></path>
            <g transform="translate(7.000000, 13.000000)" id="Shape" fill="#EE4037" sketch:type="MSShapeGroup">
                <path d="M-0.1557,10.1545 L1.2402,7.585 C1.6151,7.8354 2.1252,8.0858 2.7042,8.0858 C3.4536,8.0858 3.9646,7.6186 3.9646,6.8337 L3.9646,-0.2752 L7.4035,-0.2752 L7.4035,6.8836 C7.4035,9.7371 5.6497,11.0555 3.0111,11.0555 C1.9044,11.0555 0.7292,10.8223 -0.1557,10.1545 L-0.1557,10.1545 Z"></path>
                <path d="M7.7775,5.2985 C7.7775,1.8616 10.4671,-0.4585 14.0255,-0.4585 C17.0048,-0.4585 18.5025,1.2437 19.1839,2.7789 L16.2217,4.1308 C15.9319,3.2625 15.047,2.5121 14.0255,2.5121 C12.374,2.5121 11.2674,3.747 11.2674,5.2985 C11.2674,6.851 12.374,8.0858 14.0255,8.0858 C15.047,8.0858 15.9319,7.3345 16.2217,6.4672 L19.1839,7.8018 C18.5197,9.2871 17.0048,11.0555 14.0255,11.0555 C10.4671,11.0555 7.7775,8.7191 7.7775,5.2985 L7.7775,5.2985 Z"></path>
            </g>
            <path d="M31.5327,8.1039 L17.9138,0.3867 C17.4606,0.1295 16.9545,0.0005 16.4479,0 L16.4479,5.4734 C16.8013,5.4744 17.1546,5.5646 17.4713,5.744 L27.0168,11.1532 C27.6532,11.5144 28.0457,12.1813 28.0447,12.9023 L28.0379,23.7091 C28.0379,24.4306 27.6443,25.097 27.007,25.4573 L17.4547,30.8549 C17.1429,31.031 16.7959,31.1193 16.4479,31.1231 L16.4479,37 L31.5189,28.5118 C32.4284,27.998 32.9903,27.0477 32.9903,26.0186 L33,10.5995 C33.001,9.5705 32.4411,8.6191 31.5327,8.1039 L31.5327,8.1039 Z" id="Shape" fill="#EE4037" sketch:type="MSShapeGroup"></path>
            <path d="M1.4675,8.1039 L15.0862,0.3867 C15.5395,0.1295 16.0456,0.0005 16.5522,0 L16.5522,5.4734 C16.1987,5.4744 15.8454,5.5646 15.5287,5.744 L5.9832,11.1532 C5.3469,11.5144 4.9543,12.1813 4.9553,12.9023 L4.9622,23.7091 C4.9622,24.4306 5.3557,25.097 5.993,25.4573 L15.5453,30.8549 C15.8571,31.031 16.2041,31.1193 16.5522,31.1231 L16.5522,37 L1.4811,28.5118 C0.5717,27.998 0.0098,27.0477 0.0098,26.0186 L-7.70740478e-16,10.5995 C-0.001,9.5705 0.559,8.6191 1.4675,8.1039 L1.4675,8.1039 Z" id="Shape" fill="#C41A11" sketch:type="MSShapeGroup"></path>
        </g>
    </g>
</svg>