<?xml version="1.0" standalone="no"?><!-- Generator: Adobe Fireworks CS5, Export SVG Extension by Aaron Beall (http://fireworks.abeall.com) . Version: 0.6.1  --><!DOCTYPE svg PUBLIC "-//W3C//DTD SVG 1.1//EN" "http://www.w3.org/Graphics/SVG/1.1/DTD/svg11.dtd"><svg id="Untitled-Page%201" viewBox="0 0 17 16" style="background-color:#ffffff00" version="1.1"	xmlns="http://www.w3.org/2000/svg" xmlns:xlink="http://www.w3.org/1999/xlink" xml:space="preserve"	x="0px" y="0px" width="17px" height="16px">	<g id="Layer%201">		<path d="M 6.9629 4.3935 C 6.9629 4.3935 8.8021 3.5268 10.1159 4.2697 C 11.4296 5.0126 6.5687 0.8028 6.5687 0.8028 C 6.5687 0.8028 3.4157 -1.364 1.051 1.4219 C -1.3138 4.2078 1.051 6.3746 1.051 6.3746 L 5.1236 10.3368 C 5.1236 10.3368 7.6854 12.3178 10.51 10.4606 L 8.6708 8.7271 C 8.6708 8.7271 7.6198 9.1605 6.8315 8.4795 L 3.153 4.8888 C 3.153 4.8888 2.2991 3.9601 3.2187 2.9696 C 4.1383 1.9791 5.1236 2.7839 5.1236 2.7839 L 6.9629 4.3935 Z" fill="#cccccc"/>		<path d="M 7.7511 7.7366 L 6.0433 6.127 C 6.0433 6.127 8.3423 3.5268 11.561 5.5079 L 16.1591 9.7177 C 16.1591 9.7177 18.4997 12.4861 15.3709 15.0418 C 12.4149 17.4562 9.7217 14.5465 9.7217 14.5465 L 6.8315 11.8226 C 6.8315 11.8226 9.1306 12.3797 10.2472 11.6988 L 12.2179 13.4322 C 12.2179 13.4322 13.2689 13.9894 14.0571 13.0607 C 14.9928 11.9583 14.1885 11.0797 14.1885 11.0797 L 10.1159 7.3651 C 10.1159 7.3651 9.1306 6.746 7.7511 7.7366 Z" fill="#cccccc"/>	</g></svg>