<?xml version="1.0" standalone="no"?><!-- Generator: Adobe Fireworks CS5, Export SVG Extension by Aaron Beall (http://fireworks.abeall.com) . Version: 0.6.1  --><!DOCTYPE svg PUBLIC "-//W3C//DTD SVG 1.1//EN" "http://www.w3.org/Graphics/SVG/1.1/DTD/svg11.dtd"><svg id="Untitled-Page%201" viewBox="0 0 40 15" style="background-color:#ffffff00" version="1.1"	xmlns="http://www.w3.org/2000/svg" xmlns:xlink="http://www.w3.org/1999/xlink" xml:space="preserve"	x="0px" y="0px" width="40px" height="15px">	<g id="Layer%201">		<g>			<path d="M 9.7661 8.8617 C 9.5247 8.6308 9.2248 8.5142 8.8743 8.5142 C 8.5573 8.5142 8.1541 8.731 7.6051 9.1959 C 7.143 9.5878 6.6236 9.8327 6.0607 9.9227 C 5.8793 9.952 5.7069 9.9653 5.535 9.9653 C 4.8122 9.9653 4.2152 9.7351 3.7087 9.2574 C 3.2036 8.7827 2.9585 8.2191 2.9585 7.5324 L 2.9585 4.2463 C 2.9585 3.7358 3.1365 3.3135 3.5059 2.9543 C 3.8697 2.5958 4.3083 2.4226 4.8464 2.4226 C 5.4021 2.4226 5.8616 2.5939 6.2481 2.947 C 6.6264 3.2926 6.8269 3.732 6.8443 4.2463 L 6.8443 5.2694 L 9.7179 5.2694 L 9.7179 4.5634 C 9.7179 3.7104 9.4993 2.9326 9.069 2.2513 C 8.853 1.9103 8.59 1.5951 8.2865 1.3167 C 7.3393 0.4497 6.1818 0.0099 4.8464 0.0099 C 4.1322 0.0099 3.4632 0.139 2.8618 0.3938 C 2.8324 0.4052 2.8029 0.4185 2.7742 0.4322 L 2.7334 0.4497 C 2.2393 0.6764 1.7916 0.9832 1.4027 1.3592 C 1.2825 1.4743 1.1674 1.597 1.0509 1.7337 C 0.3534 2.5589 0 3.5387 0 4.6431 L 0 7.1891 C 0 8.663 0.5471 9.9189 1.6243 10.9253 C 2.6116 11.8398 3.808 12.3411 5.1835 12.4163 L 5.2785 12.4213 C 5.363 12.4251 5.4476 12.43 5.535 12.43 C 5.7328 12.43 5.9234 12.4163 6.0661 12.4042 C 7.5344 12.2895 8.7725 11.6765 9.7459 10.5839 L 9.7833 10.5433 C 9.8113 10.5144 9.8385 10.4848 9.8579 10.4597 C 9.9409 10.3675 9.9919 10.2668 10.0249 10.1985 C 10.0962 10.045 10.1322 9.8844 10.1322 9.7203 C 10.1322 9.5437 10.0951 9.377 10.017 9.211 C 9.9565 9.0831 9.8727 8.965 9.7661 8.8617 Z" fill="#ee4037"/>			<path d="M 20.9386 1.3501 C 20.9129 0.9893 20.7752 0.6806 20.529 0.4367 C 20.2507 0.1591 19.894 0.0182 19.4687 0.0182 C 19.0437 0.0182 18.6886 0.153 18.4118 0.4185 C 18.1313 0.6855 17.9892 1.0269 17.9892 1.4359 L 17.9892 7.7698 C 17.9892 8.3945 17.7593 8.9312 17.3068 9.3637 C 16.8453 9.8035 16.3063 10.0181 15.6601 10.0181 C 14.977 10.0181 14.4304 9.8054 13.9896 9.3668 C 13.5522 8.9346 13.3305 8.3976 13.3305 7.7698 L 13.3305 0.3239 L 10.3453 0.3239 L 10.3453 7.3745 C 10.3453 8.3854 10.5916 9.2908 11.0775 10.0633 C 11.302 10.421 11.5569 10.732 11.8589 11.0142 C 12.8588 11.9534 14.1381 12.43 15.6601 12.43 L 15.6969 12.43 C 16.4701 12.43 17.1783 12.313 17.8029 12.0867 C 17.9828 12.0214 18.159 11.9462 18.3269 11.8611 C 20.109 10.9607 20.6796 9.2156 20.8617 8.2567 C 20.9371 7.856 20.9475 7.5905 20.9475 7.5731 L 20.9475 1.4633 C 20.9475 1.4359 20.9449 1.4097 20.9419 1.3847 C 20.94 1.3755 20.9398 1.3653 20.9386 1.3501 Z" fill="#ee4037"/>			<path d="M 39.6311 8.8613 C 39.3892 8.6308 39.088 8.5142 38.7374 8.5142 C 38.424 8.5142 38.0067 8.7378 37.4658 9.1955 C 37.3756 9.2714 37.2735 9.3474 37.1484 9.4328 C 36.6176 9.7868 36.0245 9.9653 35.3867 9.9653 C 34.6789 9.9653 34.0927 9.7351 33.5934 9.2593 C 33.2061 8.889 32.9744 8.4697 32.8893 7.9855 L 39.641 7.9855 L 39.641 4.6689 C 39.641 3.3534 39.1653 2.235 38.2262 1.3452 C 37.2882 0.458 36.1251 0.0099 34.7686 0.0099 C 34.1806 0.0099 33.617 0.101 33.094 0.2795 C 32.4303 0.5066 31.8342 0.875 31.3227 1.3744 C 30.3932 2.2798 29.9223 3.3883 29.9223 4.6689 L 29.9223 7.1891 C 29.9223 8.7014 30.4549 9.966 31.5045 10.9478 C 32.5511 11.9302 33.8621 12.43 35.4026 12.43 C 36.4594 12.43 37.4132 12.1946 38.2384 11.7312 C 38.7974 11.4156 39.3001 10.9975 39.7331 10.4825 C 39.9104 10.2691 40 10.0131 40 9.7203 C 40 9.3857 39.8767 9.0971 39.6311 8.8613 ZM 32.853 4.2998 C 32.853 3.7905 33.0396 3.3625 33.4214 2.9945 C 33.8054 2.6261 34.2504 2.448 34.782 2.448 C 35.7173 2.448 36.3161 2.8274 36.6137 3.6056 C 36.6975 3.8319 36.7388 4.0499 36.7388 4.2728 L 36.7388 5.2994 L 32.853 5.2994 L 32.853 4.2998 Z" fill="#ee4037"/>			<path d="M 29.9693 2.3231 C 29.9886 2.1886 29.9977 2.0842 29.9977 2.0075 C 29.9977 1.3307 29.4805 0.7785 28.4603 0.3684 C 27.7076 0.0646 26.9296 0 26.4102 0 C 25.8994 0 25.5552 0.0596 25.539 0.0627 C 24.3709 0.2757 21.6537 1.1325 21.6537 4.454 C 21.6537 4.686 21.6481 4.8843 21.6354 5.0677 C 21.6354 5.0928 21.6332 5.1213 21.6316 5.1444 L 21.6309 11.0735 L 21.6322 11.0735 C 21.6414 11.8319 22.2758 12.4444 23.0574 12.4444 C 23.8386 12.4444 24.4731 11.8319 24.4824 11.0723 L 24.485 11.0723 L 24.4792 4.6431 C 24.4792 4.0567 24.6522 3.5798 25.0069 3.1821 C 25.2744 2.8821 25.619 2.704 26.0605 2.6383 C 26.1555 2.6242 26.284 2.6075 26.4211 2.6075 C 26.9163 2.6075 27.447 2.7667 27.9908 3.0758 C 28.1926 3.2023 28.4354 3.2668 28.7125 3.2668 C 29.3775 3.2668 29.8109 2.9482 29.9649 2.3447 L 29.9693 2.3231 Z" fill="#ee4037"/>		</g>	</g></svg>