<?xml version="1.0" standalone="no"?><!-- Generator: Adobe Fireworks CS5, Export SVG Extension by Aaron Beall (http://fireworks.abeall.com) . Version: 0.6.1  --><!DOCTYPE svg PUBLIC "-//W3C//DTD SVG 1.1//EN" "http://www.w3.org/Graphics/SVG/1.1/DTD/svg11.dtd"><svg id="Untitled-Page%201" viewBox="0 0 9 9" style="background-color:#ffffff00" version="1.1"	xmlns="http://www.w3.org/2000/svg" xmlns:xlink="http://www.w3.org/1999/xlink" xml:space="preserve"	x="0px" y="0px" width="9px" height="9px">	<g id="Layer%201">		<path d="M 1 6.9688 L 1.0201 3.474 C 1.0201 3.474 1.0625 2.6563 1.9688 2.75 C 2.2553 2.7796 2.8438 2.75 2.8438 2.75 L 3.5625 1.7188 L 1.375 1.7188 C 1.375 1.7188 0.0313 2 0.0138 3.8248 C -0.0077 6.0701 0.0138 7.0525 0.0138 7.0525 C 0.0138 7.0525 -0.3041 8.9997 2.1147 8.9997 C 4.5333 8.9997 5.625 8.9688 5.625 8.9688 C 5.625 8.9688 7.2875 9.0699 7.2875 7.1402 C 7.2875 5.2106 7.2875 5.5439 7.2875 5.5439 L 6.2813 6.4063 L 6.2813 7.2188 C 6.2813 7.2188 6.2188 8 5.522 7.9822 C 4.657 7.9602 1.625 7.9375 1.625 7.9375 C 1.625 7.9375 0.9688 7.9688 1 6.9688 Z" fill="#cccccc"/>		<path d="M 3.8801 0.4041 L 5.116 1.632 L 2.8738 3.9827 C 2.8738 3.9827 2.5914 4.2633 3.015 4.7545 C 3.4388 5.2457 4.3215 6.0702 4.3215 6.0702 C 4.3215 6.0702 4.8159 6.4035 5.3808 5.8947 C 5.9457 5.386 7.3934 3.9301 7.3934 3.9301 L 8.6293 5.1229 C 8.6293 5.1229 8.952 5.3281 8.9688 4.7344 C 9 3.625 9 0.4844 9 0.4844 C 9 0.4844 9.094 0 8.5781 0 C 6.6563 0 3.9375 0 3.9375 0 C 3.9375 0 3.527 0.1936 3.8801 0.4041 Z" fill="#cccccc"/>	</g></svg>