<?xml version="1.0" standalone="no"?><!-- Generator: Adobe Fireworks CS5, Export SVG Extension by Aaron Beall (http://fireworks.abeall.com) . Version: 0.6.1  --><!DOCTYPE svg PUBLIC "-//W3C//DTD SVG 1.1//EN" "http://www.w3.org/Graphics/SVG/1.1/DTD/svg11.dtd"><svg id="Untitled-Page%201" viewBox="0 0 180 110" style="background-color:#ffffff00" version="1.1"	xmlns="http://www.w3.org/2000/svg" xmlns:xlink="http://www.w3.org/1999/xlink" xml:space="preserve"	x="0px" y="0px" width="180px" height="110px">	<g id="Layer%201">		<g>			<path d="M 40.2097 34.641 L 43.9208 27.7738 C 44.9166 28.4426 46.2742 29.1114 47.8131 29.1114 C 49.8041 29.1114 51.1623 27.8633 51.1623 25.7674 L 51.1623 6.7721 L 60.304 6.7721 L 60.304 25.9011 C 60.304 33.5261 55.6425 37.0487 48.6277 37.0487 C 45.6858 37.0487 42.5631 36.4246 40.2097 34.641 Z" fill="#ee4037"/>			<path d="M 61.7964 36.5136 L 61.7964 6.7721 L 84.6968 6.7721 L 84.6968 14.6199 L 70.9386 14.6199 L 70.9386 17.5626 L 84.3803 17.5626 L 84.3803 25.4108 L 70.9386 25.4108 L 70.9386 28.6659 L 84.6968 28.6659 L 84.6968 36.5136 L 61.7964 36.5136 Z" fill="#ee4037"/>			<path d="M 105.0032 36.5136 L 103.9171 33.0358 L 93.0553 33.0358 L 91.9692 36.5136 L 81.6051 36.5136 L 92.7384 6.7721 L 104.234 6.7721 L 115.3673 36.5136 L 105.0032 36.5136 ZM 98.4865 15.6009 L 95.4991 25.1876 L 101.4733 25.1876 L 98.4865 15.6009 Z" fill="#ee4037"/>			<path d="M 133.8763 36.5136 L 122.743 21.4422 L 122.743 36.5136 L 113.6008 36.5136 L 113.6008 6.7721 L 123.0145 6.7721 L 133.5144 20.8624 L 133.5144 6.7721 L 142.6566 6.7721 L 142.6566 36.5136 L 133.8763 36.5136 Z" fill="#ee4037"/>			<path d="M 41.0243 55.9082 C 41.0243 46.7228 48.175 40.5245 57.6341 40.5245 C 65.5539 40.5245 69.5365 45.0729 71.3469 49.1753 L 63.472 52.7869 C 62.7029 50.4682 60.3494 48.4618 57.6341 48.4618 C 53.2442 48.4618 50.3023 51.7616 50.3023 55.9082 C 50.3023 60.0553 53.2442 63.3546 57.6341 63.3546 C 60.3494 63.3546 62.7029 61.3482 63.472 59.0295 L 71.3469 62.5968 C 69.5819 66.5654 65.5539 71.2919 57.6341 71.2919 C 48.175 71.2919 41.0243 65.0493 41.0243 55.9082 Z" fill="#ee4037"/>			<path d="M 90.4898 70.7568 L 89.4037 67.279 L 78.542 67.279 L 77.4558 70.7568 L 67.0917 70.7568 L 78.225 41.0153 L 89.7206 41.0153 L 100.8539 70.7568 L 90.4898 70.7568 ZM 83.9731 49.8441 L 80.9857 59.4308 L 86.9599 59.4308 L 83.9731 49.8441 Z" fill="#ee4037"/>			<path d="M 115.6972 70.7568 L 111.5334 61.3929 L 108.2296 61.3929 L 108.2296 70.7568 L 99.0874 70.7568 L 99.0874 41.0153 L 115.1991 41.0153 C 122.2594 41.0153 126.0613 45.6527 126.0613 51.2265 C 126.0613 56.3542 123.029 59.0742 120.6302 60.2333 L 126.1062 70.7568 L 115.6972 70.7568 ZM 116.7833 51.1818 C 116.7833 49.5766 115.3348 48.863 113.7965 48.863 L 108.2296 48.863 L 108.2296 53.5452 L 113.7965 53.5452 C 115.3348 53.5452 116.7833 52.8317 116.7833 51.1818 Z" fill="#ee4037"/>			<path d="M 126.6323 70.7568 L 126.6323 41.0153 L 135.7745 41.0153 L 135.7745 62.9091 L 147.2247 62.9091 L 147.2247 70.7568 L 126.6323 70.7568 Z" fill="#ee4037"/>			<path d="M 144.9616 55.9082 C 144.9616 46.7676 152.1577 40.5245 161.4806 40.5245 C 170.804 40.5245 178 46.7676 178 55.9082 C 178 65.0493 170.804 71.2919 161.4806 71.2919 C 152.1577 71.2919 144.9616 65.0493 144.9616 55.9082 ZM 168.722 55.9082 C 168.722 51.7616 165.8705 48.4618 161.4806 48.4618 C 157.0906 48.4618 154.2396 51.7616 154.2396 55.9082 C 154.2396 60.0553 157.0906 63.3546 161.4806 63.3546 C 165.8705 63.3546 168.722 60.0553 168.722 55.9082 Z" fill="#ee4037"/>			<path d="M 42.6535 105 L 42.6535 75.2585 L 65.5539 75.2585 L 65.5539 83.1062 L 51.7957 83.1062 L 51.7957 86.049 L 65.2374 86.049 L 65.2374 93.8972 L 51.7957 93.8972 L 51.7957 97.1523 L 65.5539 97.1523 L 65.5539 105 L 42.6535 105 Z" fill="#ee4037"/>			<path d="M 93.4452 105 L 93.4452 87.1196 L 86.7018 105 L 82.6284 105 L 75.885 87.1196 L 75.885 105 L 66.7428 105 L 66.7428 75.2585 L 79.37 75.2585 L 84.6649 89.5273 L 89.9602 75.2585 L 102.5869 75.2585 L 102.5869 105 L 93.4452 105 Z" fill="#ee4037"/>			<path d="M 104.0788 105 L 104.0788 75.2585 L 126.9792 75.2585 L 126.9792 83.1062 L 113.221 83.1062 L 113.221 86.049 L 126.6628 86.049 L 126.6628 93.8972 L 113.221 93.8972 L 113.221 97.1523 L 126.9792 97.1523 L 126.9792 105 L 104.0788 105 Z" fill="#ee4037"/>			<path d="M 144.7969 105 L 140.6331 95.6361 L 137.3293 95.6361 L 137.3293 105 L 128.1871 105 L 128.1871 75.2585 L 144.2988 75.2585 C 151.359 75.2585 155.161 79.8959 155.161 85.4697 C 155.161 90.5974 152.1288 93.3174 149.7299 94.4765 L 155.2059 105 L 144.7969 105 ZM 145.883 85.425 C 145.883 83.8198 144.4345 83.1062 142.8962 83.1062 L 137.3293 83.1062 L 137.3293 87.7884 L 142.8962 87.7884 C 144.4345 87.7884 145.883 87.0748 145.883 85.425 Z" fill="#ee4037"/>			<g>				<g>					<path d="M 7.8443 27.1545 L 9.2402 24.585 C 9.6151 24.8354 10.1252 25.0858 10.7042 25.0858 C 11.4536 25.0858 11.9646 24.6186 11.9646 23.8337 L 11.9646 16.7248 L 15.4035 16.7248 L 15.4035 23.8836 C 15.4035 26.7371 13.6497 28.0555 11.0111 28.0555 C 9.9044 28.0555 8.7292 27.8223 7.8443 27.1545 Z" fill="#ee4037"/>					<path d="M 15.7775 22.2985 C 15.7775 18.8616 18.4671 16.5415 22.0255 16.5415 C 25.0048 16.5415 26.5025 18.2437 27.1839 19.7789 L 24.2217 21.1308 C 23.9319 20.2625 23.047 19.5121 22.0255 19.5121 C 20.374 19.5121 19.2674 20.747 19.2674 22.2985 C 19.2674 23.851 20.374 25.0858 22.0255 25.0858 C 23.047 25.0858 23.9319 24.3345 24.2217 23.4672 L 27.1839 24.8018 C 26.5197 26.2871 25.0048 28.0555 22.0255 28.0555 C 18.4671 28.0555 15.7775 25.7191 15.7775 22.2985 Z" fill="#ee4037"/>				</g>				<g>					<path d="M 32.5327 12.1039 L 18.9138 4.3867 C 18.4606 4.1295 17.9545 4.0005 17.4479 4 L 17.4479 9.4734 C 17.8013 9.4744 18.1546 9.5646 18.4713 9.744 L 28.0168 15.1532 C 28.6532 15.5144 29.0457 16.1813 29.0447 16.9023 L 29.0379 27.7091 C 29.0379 28.4306 28.6443 29.097 28.007 29.4573 L 18.4547 34.8549 C 18.1429 35.031 17.7959 35.1193 17.4479 35.1231 L 17.4479 41 L 32.5189 32.5118 C 33.4284 31.998 33.9903 31.0477 33.9903 30.0186 L 34 14.5995 C 34.001 13.5705 33.4411 12.6191 32.5327 12.1039 Z" fill="#ee4037"/>				</g>				<g>					<path d="M 2.4675 12.1039 L 16.0862 4.3867 C 16.5395 4.1295 17.0456 4.0005 17.5522 4 L 17.5522 9.4734 C 17.1987 9.4744 16.8454 9.5646 16.5287 9.744 L 6.9832 15.1532 C 6.3469 15.5144 5.9543 16.1813 5.9553 16.9023 L 5.9622 27.7091 C 5.9622 28.4306 6.3557 29.097 6.993 29.4573 L 16.5453 34.8549 C 16.8571 35.031 17.2041 35.1193 17.5522 35.1231 L 17.5522 41 L 2.4811 32.5118 C 1.5717 31.998 1.0098 31.0477 1.0098 30.0186 L 1 14.5995 C 0.999 13.5705 1.559 12.6191 2.4675 12.1039 Z" fill="#c41a11"/>				</g>			</g>		</g>	</g></svg>